<svg width="396pt" height="398pt"
 viewBox="0.00 0.00 396.00 398.00" xmlns="http://www.w3.org/2000/svg" xmlns:xlink="http://www.w3.org/1999/xlink">
<g id="graph0" class="graph" transform="scale(1 1) rotate(0) translate(4 394)">
<title>%3</title>
<polygon fill="white" stroke="none" points="-4,4 -4,-394 392,-394 392,4 -4,4"/>
<!-- head:[&quot;不建议复电&quot;]\npositiveBody:[&quot;不复电&quot;]\nnegativeBody:[] -->
<g id="node1" class="node"><title>head:[&quot;不建议复电&quot;]\npositiveBody:[&quot;不复电&quot;]\nnegativeBody:[]</title>
<polygon fill="none" stroke="black" points="228,-317 75,-317 75,-264 228,-264 228,-317"/>
<text text-anchor="middle" x="151.5" y="-301.8" font-family="Times New Roman,serif" font-size="14.00">head:[&quot;不建议复电&quot;]</text>
<text text-anchor="middle" x="151.5" y="-286.8" font-family="Times New Roman,serif" font-size="14.00">positiveBody:[&quot;不复电&quot;]</text>
<text text-anchor="middle" x="151.5" y="-271.8" font-family="Times New Roman,serif" font-size="14.00">negativeBody:[]</text>
</g>
<!-- &quot;不复电&quot; -->
<g id="node7" class="node"><title>&quot;不复电&quot;</title>
<ellipse fill="none" stroke="black" cx="151.5" cy="-195" rx="43.5923" ry="18"/>
<text text-anchor="middle" x="151.5" y="-191.3" font-family="Times New Roman,serif" font-size="14.00">&quot;不复电&quot;</text>
</g>
<!-- head:[&quot;不建议复电&quot;]\npositiveBody:[&quot;不复电&quot;]\nnegativeBody:[]&#45;&gt;&quot;不复电&quot; -->
<g id="edge2" class="edge"><title>head:[&quot;不建议复电&quot;]\npositiveBody:[&quot;不复电&quot;]\nnegativeBody:[]&#45;&gt;&quot;不复电&quot;:n</title>
<path fill="none" stroke="black" d="M151.5,-263.651C151.5,-251.722 151.5,-237.115 151.5,-223.076"/>
<polygon fill="black" stroke="black" points="151.5,-213 156,-223 151.5,-218 151.5,-223 151.5,-223 151.5,-223 151.5,-218 147,-223 151.5,-213 151.5,-213"/>
<text text-anchor="middle" x="156" y="-234.8" font-family="Times New Roman,serif" font-size="14.00">+</text>
</g>
<!-- head:[&quot;不复电&quot;]\npositiveBody:[&quot;存在天气风险&quot;]\nnegativeBody:[] -->
<g id="node2" class="node"><title>head:[&quot;不复电&quot;]\npositiveBody:[&quot;存在天气风险&quot;]\nnegativeBody:[]</title>
<polygon fill="none" stroke="black" points="191,-140 0,-140 0,-87 191,-87 191,-140"/>
<text text-anchor="middle" x="95.5" y="-124.8" font-family="Times New Roman,serif" font-size="14.00">head:[&quot;不复电&quot;]</text>
<text text-anchor="middle" x="95.5" y="-109.8" font-family="Times New Roman,serif" font-size="14.00">positiveBody:[&quot;存在天气风险&quot;]</text>
<text text-anchor="middle" x="95.5" y="-94.8" font-family="Times New Roman,serif" font-size="14.00">negativeBody:[]</text>
</g>
<!-- &quot;存在天气风险&quot; -->
<g id="node4" class="node"><title>&quot;存在天气风险&quot;</title>
<ellipse fill="none" stroke="black" cx="95.5" cy="-18" rx="68.4888" ry="18"/>
<text text-anchor="middle" x="95.5" y="-14.3" font-family="Times New Roman,serif" font-size="14.00">&quot;存在天气风险&quot;</text>
</g>
<!-- head:[&quot;不复电&quot;]\npositiveBody:[&quot;存在天气风险&quot;]\nnegativeBody:[]&#45;&gt;&quot;存在天气风险&quot; -->
<g id="edge5" class="edge"><title>head:[&quot;不复电&quot;]\npositiveBody:[&quot;存在天气风险&quot;]\nnegativeBody:[]&#45;&gt;&quot;存在天气风险&quot;:n</title>
<path fill="none" stroke="black" d="M95.5,-86.6506C95.5,-74.7217 95.5,-60.1154 95.5,-46.0761"/>
<polygon fill="black" stroke="black" points="95.5,-36 100,-46 95.5,-41 95.5001,-46 95.5001,-46 95.5001,-46 95.5,-41 91.0001,-46 95.5,-36 95.5,-36"/>
<text text-anchor="middle" x="100" y="-57.8" font-family="Times New Roman,serif" font-size="14.00">+</text>
</g>
<!-- head:[&quot;不复电&quot;]\npositiveBody:[&quot;位于三跨点&quot;]\nnegativeBody:[] -->
<g id="node3" class="node"><title>head:[&quot;不复电&quot;]\npositiveBody:[&quot;位于三跨点&quot;]\nnegativeBody:[]</title>
<polygon fill="none" stroke="black" points="388,-140 209,-140 209,-87 388,-87 388,-140"/>
<text text-anchor="middle" x="298.5" y="-124.8" font-family="Times New Roman,serif" font-size="14.00">head:[&quot;不复电&quot;]</text>
<text text-anchor="middle" x="298.5" y="-109.8" font-family="Times New Roman,serif" font-size="14.00">positiveBody:[&quot;位于三跨点&quot;]</text>
<text text-anchor="middle" x="298.5" y="-94.8" font-family="Times New Roman,serif" font-size="14.00">negativeBody:[]</text>
</g>
<!-- &quot;位于三跨点&quot; -->
<g id="node5" class="node"><title>&quot;位于三跨点&quot;</title>
<ellipse fill="none" stroke="black" cx="298.5" cy="-18" rx="59.5901" ry="18"/>
<text text-anchor="middle" x="298.5" y="-14.3" font-family="Times New Roman,serif" font-size="14.00">&quot;位于三跨点&quot;</text>
</g>
<!-- head:[&quot;不复电&quot;]\npositiveBody:[&quot;位于三跨点&quot;]\nnegativeBody:[]&#45;&gt;&quot;位于三跨点&quot; -->
<g id="edge6" class="edge"><title>head:[&quot;不复电&quot;]\npositiveBody:[&quot;位于三跨点&quot;]\nnegativeBody:[]&#45;&gt;&quot;位于三跨点&quot;:n</title>
<path fill="none" stroke="black" d="M298.5,-86.6506C298.5,-74.7217 298.5,-60.1154 298.5,-46.0761"/>
<polygon fill="black" stroke="black" points="298.5,-36 303,-46 298.5,-41 298.5,-46 298.5,-46 298.5,-46 298.5,-41 294,-46 298.5,-36 298.5,-36"/>
<text text-anchor="middle" x="303" y="-57.8" font-family="Times New Roman,serif" font-size="14.00">+</text>
</g>
<!-- &quot;不建议复电&quot; -->
<g id="node6" class="node"><title>&quot;不建议复电&quot;</title>
<ellipse fill="none" stroke="black" cx="151.5" cy="-372" rx="59.5901" ry="18"/>
<text text-anchor="middle" x="151.5" y="-368.3" font-family="Times New Roman,serif" font-size="14.00">&quot;不建议复电&quot;</text>
</g>
<!-- &quot;不建议复电&quot;&#45;&gt;head:[&quot;不建议复电&quot;]\npositiveBody:[&quot;不复电&quot;]\nnegativeBody:[] -->
<g id="edge1" class="edge"><title>&quot;不建议复电&quot;&#45;&gt;head:[&quot;不建议复电&quot;]\npositiveBody:[&quot;不复电&quot;]\nnegativeBody:[]:n</title>
<path fill="none" stroke="black" d="M151.5,-353.975C151.5,-346.169 151.5,-336.561 151.5,-327.106"/>
<polygon fill="black" stroke="black" points="151.5,-317 156,-327 151.5,-322 151.5,-327 151.5,-327 151.5,-327 151.5,-322 147,-327 151.5,-317 151.5,-317"/>
</g>
<!-- &quot;不复电&quot;&#45;&gt;head:[&quot;不复电&quot;]\npositiveBody:[&quot;存在天气风险&quot;]\nnegativeBody:[] -->
<g id="edge3" class="edge"><title>&quot;不复电&quot;&#45;&gt;head:[&quot;不复电&quot;]\npositiveBody:[&quot;存在天气风险&quot;]\nnegativeBody:[]:n</title>
<path fill="none" stroke="black" d="M124.484,-180.604C112.961,-173.212 101.215,-162.881 97.0663,-149.909"/>
<polygon fill="black" stroke="black" points="95.5,-140 101.506,-149.175 96.2807,-144.939 97.0615,-149.877 97.0615,-149.877 97.0615,-149.877 96.2807,-144.939 92.6167,-150.58 95.5,-140 95.5,-140"/>
</g>
<!-- &quot;不复电&quot;&#45;&gt;head:[&quot;不复电&quot;]\npositiveBody:[&quot;位于三跨点&quot;]\nnegativeBody:[] -->
<g id="edge4" class="edge"><title>&quot;不复电&quot;&#45;&gt;head:[&quot;不复电&quot;]\npositiveBody:[&quot;位于三跨点&quot;]\nnegativeBody:[]:n</title>
<path fill="none" stroke="black" d="M191.28,-187.415C228.353,-180.294 280.037,-167.528 294.565,-149.75"/>
<polygon fill="black" stroke="black" points="298.5,-140 298.93,-150.957 296.629,-144.637 294.757,-149.273 294.757,-149.273 294.757,-149.273 296.629,-144.637 290.584,-147.589 298.5,-140 298.5,-140"/>
</g>
</g>
</svg>
